Coordinates
version=1
nRows=14
nColumns=40
inDegrees=yes

Units are S.I. units (second, meters, Newtons, ...)
Angles are in degrees.

endheader
time	pelvis_tilt	pelvis_list	pelvis_rotation	pelvis_tx	pelvis_ty	pelvis_tz	hip_flexion_r	hip_adduction_r	hip_rotation_r	knee_angle_r	knee_angle_r_beta	ankle_angle_r	subtalar_angle_r	mtp_angle_r	hip_flexion_l	hip_adduction_l	hip_rotation_l	knee_angle_l	knee_angle_l_beta	ankle_angle_l	subtalar_angle_l	mtp_angle_l	lumbar_extension	lumbar_bending	lumbar_rotation	arm_flex_r	arm_add_r	arm_rot_r	elbow_flex_r	pro_sup_r	wrist_flex_r	wrist_dev_r	arm_flex_l	arm_add_l	arm_rot_l	elbow_flex_l	pro_sup_l	wrist_flex_l	wrist_dev_l
     11.35000000	     -2.41045926	     -5.17684268	     -2.57852418	      0.92066627	      0.92427721	      0.55463246	     13.20463679	      5.95918995	    -11.99172659	     23.18984397	     23.18984397	     15.09671774	     -1.29704460	     -1.99651794	     18.19615320	    -14.77143112	     -5.32997088	     61.09526597	     61.09526597	     15.39261326	    -19.22792111	     18.04460481	    -10.11246659	      8.71565356	      0.45186975	      6.05009360	    -17.67109224	    -12.87894852	     33.60034609	     46.05478169	      0.00000000	      0.00000000	     14.68271048	    -12.07299859	     -3.68414243	     50.26735096	     46.41196397	      0.00000000	      0.00000000
     11.37121429	     -2.10978165	     -5.42346985	     -2.07555150	      0.91952263	      0.92280904	      0.55743194	     12.95330997	      6.33122795	    -12.17351251	     24.02714729	     24.02714729	     15.80625378	     -1.96510749	     -1.90363818	     19.77478720	    -15.61801687	     -5.26610051	     61.59546977	     61.59546977	     16.46628080	    -19.34242443	     19.55106009	    -10.37742190	      8.77180904	      0.56098645	      8.81746124	    -17.37484133	    -12.85602904	     33.47910916	     46.08168813	      0.00000000	      0.00000000	     12.39317143	    -11.36483568	     -2.26974949	     47.26821719	     46.26336942	      0.00000000	      0.00000000
     11.39242857	     -1.81826171	     -5.69217962	     -1.55961277	      0.91828316	      0.92097132	      0.56022171	     12.76166735	      6.73053878	    -12.35487043	     24.96825997	     24.96825997	     16.54236495	     -2.63164067	     -2.10796967	     21.40129325	    -16.43937447	     -5.13471949	     61.84862178	     61.84862178	     17.18262980	    -19.43774881	     19.88823903	    -10.68739506	      8.82956344	      0.61795278	     11.44258173	    -17.11198581	    -12.87520100	     34.24055675	     46.07193569	      0.00000000	      0.00000000	      9.84322881	    -10.67935241	     -1.40517457	     44.87428175	     46.14404722	      0.00000000	      0.00000000
     11.41364286	     -1.49787709	     -5.84759274	     -1.04189273	      0.91706100	      0.91941313	      0.56281043	     12.47484692	      7.06995999	    -12.33007629	     25.77024567	     25.77024567	     17.34576238	     -3.53755711	     -1.61166677	     22.96355074	    -16.94750464	     -4.87289244	     61.72876029	     61.72876029	     18.29833140	    -19.49919065	     21.88148663	    -10.93543971	      8.77624479	      0.90307218	     14.75425202	    -16.84107459	    -12.81228344	     32.75126731	     46.15649188	      0.00000000	      0.00000000	      8.27485143	     -9.96852706	      0.93232698	     39.87386736	     45.90582470	      0.00000000	      0.00000000
     11.43485714	     -1.21209889	     -5.96518940	     -0.46057103	      0.91578757	      0.91758884	      0.56510483	     12.27434301	      7.35166290	    -12.38321965	     26.64260483	     26.64260483	     18.00617745	     -4.51348911	     -1.68879410	     24.49970599	    -17.29071695	     -4.54219526	     61.17314026	     61.17314026	     18.71589610	    -19.54522816	     22.07827536	    -11.25849393	      8.67523275	      0.84058171	     17.46667835	    -16.46382082	    -12.88404245	     33.74820458	     46.14032926	      0.00000000	      0.00000000	      5.74017562	     -9.40030866	      1.74994764	     37.53498825	     45.78285967	      0.00000000	      0.00000000
     11.45607143	     -0.95511241	     -6.03854898	      0.10959004	      0.91447513	      0.91604074	      0.56704927	     12.03136160	      7.63853872	    -12.25527318	     27.33647837	     27.33647837	     18.70832758	     -5.63696681	     -1.07657874	     25.94995149	    -17.35373921	     -4.06947522	     60.15203281	     60.15203281	     19.17972801	    -19.56747571	     22.93237350	    -11.46746553	      8.54026772	      1.16090449	     20.55769128	    -16.24734832	    -13.07212992	     33.02624226	     46.20439913	      0.00000000	      0.00000000	      4.24356976	     -8.82776638	      4.09160020	     33.13660910	     45.51700810	      0.00000000	      0.00000000
     11.47728571	     -0.75621251	     -5.98282792	      0.72171378	      0.91309463	      0.91461229	      0.56852556	     11.81554027	      7.76562558	    -12.16389041	     27.92452969	     27.92452969	     19.17906367	     -6.75483771	     -1.06075672	     27.30341507	    -17.07500888	     -3.53685489	     58.63680606	     58.63680606	     19.16321733	    -19.57293260	     22.90840502	    -11.74939581	      8.27066460	      1.23069269	     23.11195897	    -15.99416358	    -13.12960772	     34.32260139	     46.17298460	      0.00000000	      0.00000000	      1.83089810	     -8.37998675	      4.68978425	     31.38339272	     45.40681066	      0.00000000	      0.00000000
     11.49850000	     -0.61706551	     -5.87064288	      1.38259004	      0.91173487	      0.91353646	      0.56954675	     11.55748336	      7.83777593	    -12.09193205	     28.29403290	     28.29403290	     19.53920776	     -7.92548870	     -0.92257091	     28.53265923	    -16.50938954	     -2.89425529	     56.63964889	     56.63964889	     18.92115645	    -19.56670306	     22.88269662	    -11.87630631	      7.95938326	      1.32567848	     25.61777383	    -15.77221268	    -13.11582747	     35.58813887	     46.13780908	      0.00000000	      0.00000000	     -0.34241741	     -8.03787452	      5.30315190	     29.61477934	     45.29220418	      0.00000000	      0.00000000
     11.51971429	     -0.59932932	     -5.69760693	      2.09285841	      0.91030218	      0.91281690	      0.57004270	     11.29048211	      7.79063045	    -12.17967326	     28.38735798	     28.38735798	     19.79975149	     -8.75974310	     -0.80418203	     29.69670815	    -15.64458790	     -2.11874723	     54.21858669	     54.21858669	     18.47763225	    -19.54266425	     22.81796678	    -11.92678580	      7.57889289	      1.78775222	     27.88832276	    -16.02920038	    -13.11613554	     36.76549561	     46.10667783	      0.00000000	      0.00000000	     -2.31059795	     -7.70420455	      5.70082968	     28.38463781	     45.20453198	      0.00000000	      0.00000000
     11.54092857	     -0.62308491	     -5.47225046	      2.82850881	      0.90883572	      0.91262242	      0.57013964	     11.02116249	      7.69704127	    -12.18094949	     28.37718132	     28.37718132	     19.93157655	     -9.75151530	     -0.53140475	     30.61323797	    -14.57588433	     -1.33277384	     51.30589091	     51.30589091	     17.65877242	    -19.48485382	     22.43334663	    -11.92725225	      7.22938241	      1.58680548	     30.37117053	    -15.73340085	    -12.97255854	     38.55149307	     46.04262688	      0.00000000	      0.00000000	     -4.38167451	     -7.62494175	      6.27513137	     26.89578153	     45.08560962	      0.00000000	      0.00000000
     11.56214286	     -0.76015008	     -5.28138692	      3.62387602	      0.90738845	      0.91272393	      0.56980070	     10.71268548	      7.58069244	    -12.42286068	     28.08489885	     28.08489885	     20.04316454	    -10.40184816	     -0.21234540	     31.42032584	    -13.40498192	     -0.43906544	     48.05580385	     48.05580385	     16.40709960	    -19.38955998	     21.14512239	    -11.79536544	      6.93237614	      1.52579614	     32.68570314	    -15.73912940	    -12.58832232	     40.92518586	     45.94156873	      0.00000000	      0.00000000	     -6.32044538	     -7.55814355	      7.06344203	     25.88108216	     44.92747498	      0.00000000	      0.00000000
     11.58335714	     -1.00945923	     -4.95067762	      4.39749539	      0.90592194	      0.91338292	      0.56911319	     10.37071681	      7.25241814	    -12.79631042	     27.53605431	     27.53605431	     20.00640712	    -10.67280656	      0.00654036	     32.02595659	    -11.98935593	      0.44157246	     44.48483726	     44.48483726	     15.31405476	    -19.22725999	     20.91677045	    -11.56079449	      6.42020356	      1.95860242	     34.76453560	    -16.21565081	    -12.45191068	     42.53607319	     45.88594574	      0.00000000	      0.00000000	     -7.97246410	     -7.58375062	      7.32999314	     25.40224198	     44.85427595	      0.00000000	      0.00000000
     11.60457143	     -1.25127371	     -4.76037297	      5.15118512	      0.90459619	      0.91425573	      0.56824633	      9.94129492	      7.01639211	    -13.39353252	     26.87962608	     26.87962608	     19.97333946	    -10.47200180	      0.10620553	     32.21741464	    -10.86506166	      1.01958482	     40.35442031	     40.35442031	     12.31952918	    -18.99801421	     15.58631061	    -11.45471940	      6.15655406	      2.18264293	     35.96703087	    -17.01545146	    -10.79897188	     47.71105629	     45.61649415	      0.00000000	      0.00000000	    -10.21677063	     -8.01131226	      8.84188890	     26.63788224	     44.55769008	      0.00000000	      0.00000000
     11.62578571	     -1.47824357	     -4.48362468	      5.87854035	      0.90333696	      0.91567849	      0.56718547	      9.33276761	      6.72207777	    -13.96098076	     25.94962000	     25.94962000	     19.83583503	    -10.33939112	      0.26670470	     32.23294887	     -9.56018331	      1.84499742	     36.36992935	     36.36992935	     11.16430724	    -18.46724789	     15.37078660	    -11.32715028	      5.72933965	      2.24442289	     38.32373964	    -17.29280340	    -10.59898646	     49.66199411	     45.55081750	      0.00000000	      0.00000000	    -11.83393696	     -8.17182778	      9.25563756	     26.33011277	     44.46916974	      0.00000000	      0.00000000
